<?xml version="1.0" standalone="no"?><!DOCTYPE svg PUBLIC "-//W3C//DTD SVG 1.1//EN" "http://www.w3.org/Graphics/SVG/1.1/DTD/svg11.dtd"><svg t="1531811963878" class="icon" style="" viewBox="0 0 1024 1024" version="1.1" xmlns="http://www.w3.org/2000/svg" p-id="934" xmlns:xlink="http://www.w3.org/1999/xlink" width="200" height="200"><defs><style type="text/css"></style></defs><path d="M512 47.261538c-259.938462 0-472.615385 212.676923-472.615385 472.615385s212.676923 472.615385 472.615385 472.615385 472.615385-212.676923 472.615385-472.615385-212.676923-472.615385-472.615385-472.615385z m267.815385 338.707693l-315.076923 315.076923c-15.753846 15.753846-39.384615 15.753846-55.138462 0l-7.876923-7.876923-133.907692-173.292308c-15.753846-15.753846-7.876923-39.384615 7.876923-55.138461 15.753846-15.753846 39.384615-7.876923 55.138461 7.876923l110.276923 141.784615 291.446154-291.446154c15.753846-15.753846 39.384615-15.753846 55.138462 0s7.876923 55.138462-7.876923 63.015385z" fill="#7ED67F" p-id="935"></path></svg>